<svg width="175" height="32" viewBox="0 0 175 32" fill="none" xmlns="http://www.w3.org/2000/svg">
<path d="M21.2159 9.57955H16.9659C16.8447 8.88258 16.6212 8.26515 16.2955 7.72727C15.9697 7.18182 15.5644 6.7197 15.0795 6.34091C14.5947 5.96212 14.0417 5.67803 13.4205 5.48864C12.8068 5.29167 12.1439 5.19318 11.4318 5.19318C10.1667 5.19318 9.04545 5.51136 8.06818 6.14773C7.09091 6.77651 6.32576 7.70076 5.77273 8.92045C5.2197 10.1326 4.94318 11.6136 4.94318 13.3636C4.94318 15.1439 5.2197 16.6439 5.77273 17.8636C6.33333 19.0758 7.09848 19.9924 8.06818 20.6136C9.04545 21.2273 10.1629 21.5341 11.4205 21.5341C12.1174 21.5341 12.7689 21.4432 13.375 21.2614C13.9886 21.072 14.5379 20.7955 15.0227 20.4318C15.5152 20.0682 15.928 19.6212 16.2614 19.0909C16.6023 18.5606 16.8371 17.9545 16.9659 17.2727L21.2159 17.2955C21.0568 18.4015 20.7121 19.4394 20.1818 20.4091C19.6591 21.3788 18.9735 22.2348 18.125 22.9773C17.2765 23.7121 16.2841 24.2879 15.1477 24.7045C14.0114 25.1136 12.75 25.3182 11.3636 25.3182C9.31818 25.3182 7.49242 24.8447 5.88636 23.8977C4.2803 22.9508 3.01515 21.5833 2.09091 19.7955C1.16667 18.0076 0.704545 15.8636 0.704545 13.3636C0.704545 10.8561 1.17045 8.71212 2.10227 6.93182C3.03409 5.14394 4.30303 3.77651 5.90909 2.82954C7.51515 1.88257 9.33333 1.40909 11.3636 1.40909C12.6591 1.40909 13.8636 1.59091 14.9773 1.95454C16.0909 2.31818 17.0833 2.85227 17.9545 3.55682C18.8258 4.25379 19.5417 5.10985 20.1023 6.125C20.6705 7.13258 21.0417 8.28409 21.2159 9.57955ZM32.5085 25.3409C30.804 25.3409 29.3267 24.9659 28.0767 24.2159C26.8267 23.4659 25.857 22.4167 25.1676 21.0682C24.4858 19.7197 24.1449 18.1439 24.1449 16.3409C24.1449 14.5379 24.4858 12.9583 25.1676 11.6023C25.857 10.2462 26.8267 9.19318 28.0767 8.44318C29.3267 7.69318 30.804 7.31818 32.5085 7.31818C34.2131 7.31818 35.6903 7.69318 36.9403 8.44318C38.1903 9.19318 39.1563 10.2462 39.8381 11.6023C40.5275 12.9583 40.8722 14.5379 40.8722 16.3409C40.8722 18.1439 40.5275 19.7197 39.8381 21.0682C39.1563 22.4167 38.1903 23.4659 36.9403 24.2159C35.6903 24.9659 34.2131 25.3409 32.5085 25.3409ZM32.5312 22.0455C33.4555 22.0455 34.2282 21.7917 34.8494 21.2841C35.4706 20.7689 35.9328 20.0795 36.2358 19.2159C36.5464 18.3523 36.7017 17.3902 36.7017 16.3295C36.7017 15.2614 36.5464 14.2955 36.2358 13.4318C35.9328 12.5606 35.4706 11.8674 34.8494 11.3523C34.2282 10.8371 33.4555 10.5795 32.5312 10.5795C31.5843 10.5795 30.7964 10.8371 30.1676 11.3523C29.5464 11.8674 29.0805 12.5606 28.7699 13.4318C28.4669 14.2955 28.3153 15.2614 28.3153 16.3295C28.3153 17.3902 28.4669 18.3523 28.7699 19.2159C29.0805 20.0795 29.5464 20.7689 30.1676 21.2841C30.7964 21.7917 31.5843 22.0455 32.5312 22.0455ZM48.4773 14.7727V25H44.3636V7.54545H48.2955V10.5114H48.5C48.9015 9.53409 49.5417 8.75758 50.4205 8.18182C51.3068 7.60606 52.4015 7.31818 53.7045 7.31818C54.9091 7.31818 55.9583 7.57576 56.8523 8.09091C57.7538 8.60606 58.4508 9.35227 58.9432 10.3295C59.4432 11.3068 59.6894 12.4924 59.6818 13.8864V25H55.5682V14.5227C55.5682 13.3561 55.2652 12.4432 54.6591 11.7841C54.0606 11.125 53.2311 10.7955 52.1705 10.7955C51.4508 10.7955 50.8106 10.9545 50.25 11.2727C49.697 11.5833 49.2614 12.0341 48.9432 12.625C48.6326 13.2159 48.4773 13.9318 48.4773 14.7727ZM67.9773 14.7727V25H63.8636V7.54545H67.7955V10.5114H68C68.4015 9.53409 69.0417 8.75758 69.9205 8.18182C70.8068 7.60606 71.9015 7.31818 73.2045 7.31818C74.4091 7.31818 75.4583 7.57576 76.3523 8.09091C77.2538 8.60606 77.9508 9.35227 78.4432 10.3295C78.9432 11.3068 79.1894 12.4924 79.1818 13.8864V25H75.0682V14.5227C75.0682 13.3561 74.7652 12.4432 74.1591 11.7841C73.5606 11.125 72.7311 10.7955 71.6705 10.7955C70.9508 10.7955 70.3106 10.9545 69.75 11.2727C69.197 11.5833 68.7614 12.0341 68.4432 12.625C68.1326 13.2159 67.9773 13.9318 67.9773 14.7727ZM91.0909 25.3409C89.3409 25.3409 87.8295 24.9773 86.5568 24.25C85.2917 23.5152 84.3182 22.4773 83.6364 21.1364C82.9545 19.7879 82.6136 18.2008 82.6136 16.375C82.6136 14.5795 82.9545 13.0038 83.6364 11.6477C84.3258 10.2841 85.2879 9.22348 86.5227 8.46591C87.7576 7.70076 89.2083 7.31818 90.875 7.31818C91.9508 7.31818 92.9659 7.49242 93.9205 7.84091C94.8826 8.18182 95.7311 8.71212 96.4659 9.43182C97.2083 10.1515 97.7917 11.0682 98.2159 12.1818C98.6402 13.2879 98.8523 14.6061 98.8523 16.1364V17.3977H84.5455V14.625H94.9091C94.9015 13.8371 94.7311 13.1364 94.3977 12.5227C94.0644 11.9015 93.5985 11.4129 93 11.0568C92.4091 10.7008 91.7197 10.5227 90.9318 10.5227C90.0909 10.5227 89.3523 10.7273 88.7159 11.1364C88.0795 11.5379 87.5833 12.0682 87.2273 12.7273C86.8788 13.3788 86.7008 14.0947 86.6932 14.875V17.2955C86.6932 18.3106 86.8788 19.1818 87.25 19.9091C87.6212 20.6288 88.1402 21.1818 88.8068 21.5682C89.4735 21.947 90.2538 22.1364 91.1477 22.1364C91.7462 22.1364 92.2879 22.053 92.7727 21.8864C93.2576 21.7121 93.678 21.4583 94.0341 21.125C94.3902 20.7917 94.6591 20.3788 94.8409 19.8864L98.6818 20.3182C98.4394 21.3333 97.9773 22.2197 97.2955 22.9773C96.6212 23.7273 95.7576 24.3106 94.7045 24.7273C93.6515 25.1364 92.447 25.3409 91.0909 25.3409ZM109.946 25.3409C108.204 25.3409 106.707 24.9583 105.457 24.1932C104.215 23.428 103.257 22.3712 102.582 21.0227C101.916 19.6667 101.582 18.1061 101.582 16.3409C101.582 14.5682 101.923 13.0038 102.605 11.6477C103.287 10.2841 104.249 9.22348 105.491 8.46591C106.741 7.70076 108.219 7.31818 109.923 7.31818C111.34 7.31818 112.594 7.57955 113.685 8.10227C114.783 8.61742 115.658 9.34848 116.31 10.2955C116.961 11.2348 117.332 12.3333 117.423 13.5909H113.491C113.332 12.75 112.954 12.0492 112.355 11.4886C111.764 10.9205 110.973 10.6364 109.98 10.6364C109.139 10.6364 108.401 10.8636 107.764 11.3182C107.128 11.7652 106.632 12.4091 106.276 13.25C105.927 14.0909 105.753 15.0985 105.753 16.2727C105.753 17.4621 105.927 18.4848 106.276 19.3409C106.624 20.1894 107.113 20.8447 107.741 21.3068C108.378 21.7614 109.124 21.9886 109.98 21.9886C110.586 21.9886 111.128 21.875 111.605 21.6477C112.09 21.4129 112.495 21.0758 112.821 20.6364C113.147 20.197 113.37 19.6629 113.491 19.0341H117.423C117.325 20.2689 116.961 21.3636 116.332 22.3182C115.704 23.2652 114.848 24.0076 113.764 24.5455C112.681 25.0758 111.408 25.3409 109.946 25.3409ZM129.517 7.54545V10.7273H119.483V7.54545H129.517ZM121.96 3.36364H126.074V19.75C126.074 20.303 126.157 20.7273 126.324 21.0227C126.498 21.3106 126.725 21.5076 127.006 21.6136C127.286 21.7197 127.597 21.7727 127.938 21.7727C128.195 21.7727 128.43 21.7538 128.642 21.7159C128.862 21.678 129.028 21.6439 129.142 21.6136L129.835 24.8295C129.616 24.9053 129.301 24.9886 128.892 25.0795C128.491 25.1705 127.998 25.2235 127.415 25.2386C126.384 25.2689 125.456 25.1136 124.631 24.7727C123.805 24.4242 123.15 23.8864 122.665 23.1591C122.188 22.4318 121.953 21.5227 121.96 20.4318V3.36364ZM132.957 25V7.54545H137.071V25H132.957ZM135.026 5.06818C134.374 5.06818 133.813 4.85227 133.344 4.42045C132.874 3.98106 132.639 3.45454 132.639 2.84091C132.639 2.2197 132.874 1.69318 133.344 1.26136C133.813 0.821969 134.374 0.602272 135.026 0.602272C135.685 0.602272 136.245 0.821969 136.707 1.26136C137.177 1.69318 137.412 2.2197 137.412 2.84091C137.412 3.45454 137.177 3.98106 136.707 4.42045C136.245 4.85227 135.685 5.06818 135.026 5.06818ZM161.514 31.5455C160.954 31.5455 160.435 31.5 159.957 31.4091C159.488 31.3258 159.113 31.2273 158.832 31.1136L159.787 27.9091C160.385 28.0833 160.92 28.1667 161.389 28.1591C161.859 28.1515 162.272 28.0038 162.628 27.7159C162.991 27.4356 163.298 26.9659 163.548 26.3068L163.901 25.3636L157.571 7.54545H161.935L165.957 20.7273H166.139L170.173 7.54545H174.548L167.56 27.1136C167.234 28.0379 166.802 28.8295 166.264 29.4886C165.726 30.1553 165.067 30.6629 164.287 31.0114C163.514 31.3674 162.59 31.5455 161.514 31.5455Z" fill="white"/>
<path d="M141.483 25V1.72727H156.392V5.26136H145.699V11.5795H155.369V15.1136H145.699V25H141.483Z" fill="#3369F4"/>
</svg>
